<svg viewBox="0 0 24 24" transform="scale(-1, -1)" xmlns="http://www.w3.org/2000/svg" fill='#FF8C00'>
    <path  d="M2.47870526,17.1058091 C3.80723158,17.1058091 4.88154737,18.1240818 4.88154737,19.3786273 C4.88154737,20.6331727 3.80502105,21.6493545 2.47649474,21.6493545 C1.15238947,21.6493545 0.0758631579,20.6310818 0.0758631579,19.3765364 C0.0758631579,18.1219909 1.15238947,17.1058091 2.47870526,17.1058091 Z M19.2506316,16.0101727 C19.5291579,17.2479909 18.6935789,18.4649 17.3849474,18.7262636 L10.3377895,20.1439 C9.02915789,20.4073545 7.74484211,19.6169909 7.46631579,18.3791727 C7.19,17.1413545 8.02557895,15.9265364 9.332,15.6630818 L16.3791579,14.2454455 C17.6877895,13.9819909 18.9743158,14.7723545 19.2506316,16.0101727 Z M14.3330947,9.97371818 L14.3330947,9.97999091 C14.6116211,11.2178091 13.7760421,12.4347182 12.4674105,12.6960818 L2.97541053,14.6050818 C1.66677895,14.8664455 0.382463158,14.0760818 0.103936842,12.8403545 L0.101726316,12.8319909 C-0.174589474,11.5962636 0.660989474,10.3793545 1.96962105,10.1179909 L11.4616211,8.20899091 C12.7702526,7.94553636 14.0545684,8.7359 14.3330947,9.97371818 Z M19.2526211,1.95696364 L19.2570421,1.9716 C19.5333579,3.20941818 18.6977789,4.42632727 17.3891474,4.68769091 L2.97872632,7.5836 C1.67230526,7.84496364 0.387989474,7.0546 0.109463158,5.81887273 L0.107252632,5.80214545 C-0.171273684,4.56641818 0.664305263,3.34950909 1.97072632,3.08814545 L16.3811474,0.192236364 C17.6897789,-0.0712181818 18.9763053,0.719145455 19.2526211,1.95696364 Z" />
</svg>